<svg width="24" height="24" fill="none"
  xmlns="http://www.w3.org/2000/svg">
  <rect x="1" y="1" width="22" height="22" rx="4" stroke="#000" stroke-width="2"/>
  <path d="M4.173 12.842c0 4.696 2.854 5.755 5.586 6.062h4.466c2.732-.307 5.602-1.35 5.602-6.062 0-1.35-.476-2.44-1.258-3.3.122-.307.552-1.565-.123-3.254 0 0-1.028-.337-3.377 1.259A11.392 11.392 0 0 0 12 7.133c-1.044 0-2.087.138-3.07.414-2.348-1.58-3.376-1.259-3.376-1.259-.675 1.689-.245 2.947-.123 3.254-.782.86-1.258 1.965-1.258 3.3Z" fill="#000"/>
  <rect x="7.984" y="13.262" width="2.181" height="2.647" rx="1.09" fill="#fff"/>
  <rect x="13.703" y="13.262" width="2.181" height="2.647" rx="1.09" fill="#fff"/>
</svg>