<svg width="24" height="24" viewBox="0 0 24 24" version="1.1" xmlns="http://www.w3.org/2000/svg" xmlns:xlink="http://www.w3.org/1999/xlink" xmlns:figma="http://www.figma.com/figma/ns">
<title>linkedin</title>
<desc>Created using Figma</desc>
<g id="Canvas" transform="translate(88 95)" figma:type="canvas">
<g id="linkedin" style="mix-blend-mode:normal;" figma:type="frame">
<g id="Rectangle" style="mix-blend-mode:normal;" figma:type="rounded-rectangle">
<mask id="mask0_outline_out">
<rect id="mask0_outline_inv" fill="white" x="-2" y="-2" width="24" height="24" transform="translate(-86 -93)"/>
<use xlink:href="#path0_fill" fill="black" transform="translate(-86 -93)"/>
</mask>
<g mask="url(#mask0_outline_out)">
<use xlink:href="#path1_stroke_2x" transform="translate(-86 -93)" style="mix-blend-mode:normal;"/>
</g>
</g>
<g id="LinkedIn_Logo" style="mix-blend-mode:normal;" figma:type="frame">
<g id="layer1" style="mix-blend-mode:normal;" figma:type="frame">
<g id="g3019" style="mix-blend-mode:normal;" figma:type="frame">
<g id="path28" style="mix-blend-mode:normal;" figma:type="vector">
<use xlink:href="#path2_fill" transform="matrix(1.01883 0 0 -1.01883 -82 -77)" style="mix-blend-mode:normal;"/>
</g>
<g id="path30" style="mix-blend-mode:normal;" figma:type="vector">
<use xlink:href="#path3_fill" transform="matrix(1.01883 0 0 -1.01883 -77.8261 -77)" style="mix-blend-mode:normal;"/>
</g>
</g>
</g>
</g>
</g>
</g>
<defs>
<path id="path0_fill" d="M 0 3C 0 1.34315 1.34315 0 3 0L 17 0C 18.6569 0 20 1.34315 20 3L 20 17C 20 18.6569 18.6569 20 17 20L 3 20C 1.34315 20 0 18.6569 0 17L 0 3Z"/>
<path id="path1_stroke_2x" d="M 3 2L 17 2L 17 -2L 3 -2L 3 2ZM 18 3L 18 17L 22 17L 22 3L 18 3ZM 17 18L 3 18L 3 22L 17 22L 17 18ZM 2 17L 2 3L -2 3L -2 17L 2 17ZM 3 -2C 0.238576 -2 -2 0.238576 -2 3L 2 3C 2 2.44772 2.44772 2 3 2L 3 -2ZM 17 2C 17.5523 2 18 2.44772 18 3L 22 3C 22 0.238576 19.7614 -2 17 -2L 17 2ZM 18 17C 18 17.5523 17.5523 18 17 18L 17 22C 19.7614 22 22 19.7614 22 17L 18 17ZM 3 18C 2.44772 18 2 17.5523 2 17L -2 17C -2 19.7614 0.238576 22 3 22L 3 18Z"/>
<path id="path2_fill" fill-rule="evenodd" d="M 2.35565 0L 2.35565 8.21801L 0 8.21801L 3.11456e-09 0L 2.35565 0ZM 1.17783 9.4226C 2.05829 9.4226 2.35565 9.83911 2.35565 10.5636C 2.33924 11.3044 2.04159 11.7782 1.17783 11.7782C 0.314151 11.7782 0 11.3044 0 10.5636C 0 9.83911 0.330515 9.4226 1.17783 9.4226Z"/>
<path id="path3_fill" fill-rule="evenodd" d="M 0 0L 2.38126 0L 2.38126 4.7113C 2.38126 4.93694 2.51563 5.25611 2.5823 5.41741C 2.76482 5.86824 3.18026 6.33516 3.87776 6.33516C 4.79138 6.33516 5.32582 5.72624 5.32582 4.7113L 5.32582 0L 7.68147 0L 7.68147 4.91787C 7.68147 7.23683 6.52608 8.21801 4.86493 8.21801C 3.50285 8.21801 2.71348 7.58235 2.38126 7.06695L 2.38126 8.21801L 3.30415e-08 8.21801C 0.0331327 7.50958 0 0 0 0Z"/>
</defs>
</svg>
